<svg xmlns="http://www.w3.org/2000/svg" viewBox="0 0 389.55 37.46"><defs><style>.cls-1{fill:#f6f5f7;}</style></defs><title>mp_letters_bright</title><g id="Layer_2" data-name="Layer 2"><g id="Layer_1-2" data-name="Layer 1"><path class="cls-1" d="M48.07,36.2V37H33.41V36.2c2.21,0,3.78-1.52,3.78-5.46V2.26L23.9,37.46h-.79L8.41,5.62V23.8c0,3,.42,12.4,7,12.4V37H0V36.2c7.14,0,7.62-9.4,7.62-12.4V4.36A6.35,6.35,0,0,0,1.73.79V0H13.61L26.74,28.21,37.2,0H47.7V.79c-2.26,0-4,1.26-4,4.62V30.73C43.66,34.67,45.81,36.2,48.07,36.2Z"/><path class="cls-1" d="M75.54,37H66.09v-.55c2.43,0,1.29-3,.85-4l-1.18-2.94H56.64c-.51,1.47-2.46,7.21,3,7V37H51v-.55c1.18,0,2.1,0,5.48-8.57L62.78,11.1h.48C70,27.31,72.49,33.6,72.49,33.6c1.21,2.94,2.06,2.76,3.05,2.83Zm-10-8.09L61,17.42,56.75,28.9Z"/><path class="cls-1" d="M102,37H98.93c-5.66,0-4.89,0-7.24-8a5.16,5.16,0,0,0-5.15-3.82H84.81v7.68c0,2.54,1,3.6,2.57,3.6V37H77.9v-.55c1.58,0,2.46-1,2.46-3.82V14.7c0-2.28-.85-3.05-2.46-3.05V11.1H86c7.32,0,12,.88,12,7,0,4.74-2.87,6.32-7,6.69,2.43-.07,5.15.85,7,8.2A4.56,4.56,0,0,0,102,36.43ZM86,11.65H84.81V24.59H86c3.9,0,6.91,0,6.91-6.47S89.7,11.65,86,11.65Z"/><path class="cls-1" d="M127.32,11.1v.55c-1.29,0-4,0-8.13,8.09l-2.61,5.44v7.5c0,2.76,1.4,3.71,2.94,3.71V37H109.26V36.4c1.54,0,2.94-1,2.94-3.71V26.62c-5.41-9.56-7.06-12.13-7.06-12.13-1.62-2.79-2.83-2.83-3.9-2.87V11.1h10.59v.52c-.92,0-3.35-.07-.85,4.16l5.3,8.82,2.65-5.44c.62-1.29,3.27-7.5-1.88-7.5V11.1Z"/><path class="cls-1" d="M150,29v8h-19.6v-.55c1.58,0,2.32-1.51,2.32-4V14.85c0-2.24-1-3.2-2.61-3.2V11.1H140.3v.55c-1.58,0-3.05.63-3.05,3.27V36.43h1.32c2,0,10,0,10.92-7.43Z"/><path class="cls-1" d="M165.19,11.1v.55c-1.58,0-2.87.81-2.87,3.09V32.79c0,2.5,1.32,3.64,2.87,3.64V37H154.93v-.55c1.58,0,2.87-1.14,2.87-3.64V14.74c0-2.28-1.25-3.09-2.87-3.09V11.1Z"/><path class="cls-1" d="M197,11.1v.55c-5.44,0-5.33,7-5.33,8.68V37h-1.58L174.2,16.8V27.68c0,1.65,0,8.75,4.93,8.75V37H168.25v-.55c5.41,0,5.41-7.1,5.41-8.75V16.21l-1.47-1.88c-2.35-2.94-3.42-2.61-4.38-2.68V11.1h7.91l15.37,19.38V20.33c0-1.69,0-8.71-4.93-8.68V11.1Z"/><path class="cls-1" d="M219.28,29.15V37h-19.6v-.55c1.54,0,2.06-1.62,2.06-4.12V15.58c0-2.28-.44-3.94-2.06-3.94V11.1h19.12v6.8h-.55c-.62-6.21-8.79-6.25-10.3-6.25H206.3v12h1.84c.51,0,5.26,0,5.55-3.75h.55V28h-.55c-.29-3.79-5.08-3.79-5.55-3.79H206.3V36.43h1.51c1.62,0,9.74.07,10.92-7.28Z"/><path class="cls-1" d="M248.79,29.79c0,6.15,2.94,6.41,5.73,6.41V37h-15.6V36.2c2.42,0,3.47-2,3.47-6.36V6.25c0-3.42-1.1-5.46-3.57-5.46V0h11.4c10.45,0,17.65,1.58,17.65,10.61s-7.2,10.56-17.65,10.56h-1.42Zm1.42-9.4c5.78,0,10.45-.26,10.45-9.77,0-9.67-4.78-9.82-10.45-9.82h-1.42v19.6Z"/><path class="cls-1" d="M289.71,37h-9.45v-.55c2.43,0,1.29-3,.85-4l-1.18-2.94h-9.12c-.52,1.47-2.46,7.21,3,7V37h-8.64v-.55c1.18,0,2.1,0,5.48-8.57L277,11.1h.48c6.77,16.22,9.23,22.5,9.23,22.5,1.21,2.94,2.06,2.76,3.05,2.83Zm-10-8.09-4.56-11.47L270.92,28.9Z"/><path class="cls-1" d="M312.29,11.1V18h-.55c-.22-6.29-7.21-6.4-7.46-6.4h-1.43V33c0,2.46,1.36,3.46,2.9,3.46V37h-10.3v-.55c1.54,0,2.9-1,2.9-3.46V11.65h-1.43c-.55,0-7.21.11-7.43,6.4h-.55V11.1Z"/><path class="cls-1" d="M336.41,37H327v-.55c2.43,0,1.29-3,.85-4l-1.18-2.94h-9.12c-.51,1.47-2.46,7.21,3,7V37h-8.64v-.55c1.18,0,2.1,0,5.48-8.57l6.29-16.77h.48c6.77,16.22,9.23,22.5,9.23,22.5,1.21,2.94,2.06,2.76,3.05,2.83Zm-10-8.09-4.56-11.47L317.62,28.9Z"/><path class="cls-1" d="M362.89,37H359.8c-5.66,0-4.89,0-7.24-8a5.16,5.16,0,0,0-5.15-3.82h-1.73v7.68c0,2.54,1,3.6,2.57,3.6V37h-9.49v-.55c1.58,0,2.46-1,2.46-3.82V14.7c0-2.28-.85-3.05-2.46-3.05V11.1h8.05c7.32,0,12,.88,12,7,0,4.74-2.87,6.32-7,6.69,2.43-.07,5.15.85,7,8.2a4.56,4.56,0,0,0,4.16,3.42ZM346.82,11.65h-1.14V24.59h1.14c3.9,0,6.91,0,6.91-6.47S350.57,11.65,346.82,11.65Z"/><path class="cls-1" d="M377.23,37.32c-8.09,0-12.32-5.77-12.32-13.09s4.23-13.46,12.32-13.46,12.32,6.18,12.32,13.46S385.32,37.32,377.23,37.32Zm0-26c-4.38,0-7.06,2.83-7.06,12.91s2.68,12.54,7.06,12.54,7-2.43,7-12.54S381.57,11.32,377.23,11.32Z"/></g></g></svg>