<svg xmlns="http://www.w3.org/2000/svg" viewBox="0 0 389.55 145.78"><defs><style>.cls-1{fill:#f6f5f7;}</style></defs><title>mp_logo_bright</title><g id="Layer_2" data-name="Layer 2"><g id="Layer_1-2" data-name="Layer 1"><path class="cls-1" d="M48.07,144.52v.79H33.41v-.79c2.21,0,3.78-1.52,3.78-5.46V110.58L23.9,145.78h-.79L8.41,113.94v18.18c0,3,.42,12.4,7,12.4v.79H0v-.79c7.14,0,7.62-9.4,7.62-12.4V112.68a6.35,6.35,0,0,0-5.88-3.57v-.79H13.61l13.13,28.21L37.2,108.32H47.7v.79c-2.26,0-4,1.26-4,4.62v25.32C43.66,143,45.81,144.52,48.07,144.52Z"/><path class="cls-1" d="M75.54,145.31H66.09v-.55c2.43,0,1.29-3,.85-4l-1.18-2.94H56.64c-.51,1.47-2.46,7.21,3,7v.55H51v-.55c1.18,0,2.1,0,5.48-8.57l6.29-16.77h.48c6.77,16.22,9.23,22.5,9.23,22.5,1.21,2.94,2.06,2.76,3.05,2.83Zm-10-8.09L61,125.75l-4.23,11.47Z"/><path class="cls-1" d="M102,145.31H98.93c-5.66,0-4.89,0-7.24-8a5.16,5.16,0,0,0-5.15-3.82H84.81v7.68c0,2.54,1,3.6,2.57,3.6v.55H77.9v-.55c1.58,0,2.46-1,2.46-3.82V123c0-2.28-.85-3.05-2.46-3.05v-.55H86c7.32,0,12,.88,12,7,0,4.74-2.87,6.32-7,6.69,2.43-.07,5.15.85,7,8.2a4.56,4.56,0,0,0,4.16,3.42ZM86,120H84.81v12.94H86c3.9,0,6.91,0,6.91-6.47S89.7,120,86,120Z"/><path class="cls-1" d="M127.32,119.42V120c-1.29,0-4,0-8.13,8.09l-2.61,5.44V141c0,2.76,1.4,3.71,2.94,3.71v.59H109.26v-.59c1.54,0,2.94-1,2.94-3.71v-6.07c-5.41-9.56-7.06-12.13-7.06-12.13-1.62-2.79-2.83-2.83-3.9-2.87v-.52h10.59v.52c-.92,0-3.35-.07-.85,4.16l5.3,8.82,2.65-5.44c.62-1.29,3.27-7.5-1.88-7.5v-.55Z"/><path class="cls-1" d="M150,137.33v8h-19.6v-.55c1.58,0,2.32-1.51,2.32-4V123.17c0-2.24-1-3.2-2.61-3.2v-.55H140.3V120c-1.58,0-3.05.63-3.05,3.27v21.51h1.32c2,0,10,0,10.92-7.43Z"/><path class="cls-1" d="M165.19,119.42V120c-1.58,0-2.87.81-2.87,3.09v18.05c0,2.5,1.32,3.64,2.87,3.64v.55H154.93v-.55c1.58,0,2.87-1.14,2.87-3.64V123.06c0-2.28-1.25-3.09-2.87-3.09v-.55Z"/><path class="cls-1" d="M197,119.42V120c-5.44,0-5.33,7-5.33,8.68v16.66h-1.58L174.2,125.12V136c0,1.65,0,8.75,4.93,8.75v.55H168.25v-.55c5.41,0,5.41-7.1,5.41-8.75V124.53l-1.47-1.88c-2.35-2.94-3.42-2.61-4.38-2.68v-.55h7.91l15.37,19.38V128.65c0-1.69,0-8.71-4.93-8.68v-.55Z"/><path class="cls-1" d="M219.28,137.48v7.83h-19.6v-.55c1.54,0,2.06-1.62,2.06-4.12V123.91c0-2.28-.44-3.94-2.06-3.94v-.55h19.12v6.8h-.55C217.63,120,209.47,120,208,120H206.3v12h1.84c.51,0,5.26,0,5.55-3.75h.55v8.09h-.55c-.29-3.79-5.08-3.79-5.55-3.79H206.3v12.24h1.51c1.62,0,9.74.07,10.92-7.28Z"/><path class="cls-1" d="M248.79,138.11c0,6.15,2.94,6.41,5.73,6.41v.79h-15.6v-.79c2.42,0,3.47-2,3.47-6.36V114.58c0-3.42-1.1-5.46-3.57-5.46v-.79h11.4c10.45,0,17.65,1.58,17.65,10.61s-7.2,10.56-17.65,10.56h-1.42Zm1.42-9.4c5.78,0,10.45-.26,10.45-9.77,0-9.67-4.78-9.82-10.45-9.82h-1.42v19.6Z"/><path class="cls-1" d="M289.71,145.31h-9.45v-.55c2.43,0,1.29-3,.85-4l-1.18-2.94h-9.12c-.52,1.47-2.46,7.21,3,7v.55h-8.64v-.55c1.18,0,2.1,0,5.48-8.57L277,119.42h.48c6.77,16.22,9.23,22.5,9.23,22.5,1.21,2.94,2.06,2.76,3.05,2.83Zm-10-8.09-4.56-11.47-4.23,11.47Z"/><path class="cls-1" d="M312.29,119.42v6.95h-.55c-.22-6.29-7.21-6.4-7.46-6.4h-1.43V141.3c0,2.46,1.36,3.46,2.9,3.46v.55h-10.3v-.55c1.54,0,2.9-1,2.9-3.46V120h-1.43c-.55,0-7.21.11-7.43,6.4h-.55v-6.95Z"/><path class="cls-1" d="M336.41,145.31H327v-.55c2.43,0,1.29-3,.85-4l-1.18-2.94h-9.12c-.51,1.47-2.46,7.21,3,7v.55h-8.64v-.55c1.18,0,2.1,0,5.48-8.57l6.29-16.77h.48c6.77,16.22,9.23,22.5,9.23,22.5,1.21,2.94,2.06,2.76,3.05,2.83Zm-10-8.09-4.56-11.47-4.23,11.47Z"/><path class="cls-1" d="M362.89,145.31H359.8c-5.66,0-4.89,0-7.24-8a5.16,5.16,0,0,0-5.15-3.82h-1.73v7.68c0,2.54,1,3.6,2.57,3.6v.55h-9.49v-.55c1.58,0,2.46-1,2.46-3.82V123c0-2.28-.85-3.05-2.46-3.05v-.55h8.05c7.32,0,12,.88,12,7,0,4.74-2.87,6.32-7,6.69,2.43-.07,5.15.85,7,8.2a4.56,4.56,0,0,0,4.16,3.42ZM346.82,120h-1.14v12.94h1.14c3.9,0,6.91,0,6.91-6.47S350.57,120,346.82,120Z"/><path class="cls-1" d="M377.23,145.64c-8.09,0-12.32-5.77-12.32-13.09s4.23-13.46,12.32-13.46,12.32,6.18,12.32,13.46S385.32,145.64,377.23,145.64Zm0-26c-4.38,0-7.06,2.83-7.06,12.91s2.68,12.54,7.06,12.54,7-2.43,7-12.54S381.57,119.64,377.23,119.64Z"/><path class="cls-1" d="M210,76.78V38.84c0-3.94,1.64-5.94,4-6.64a7.34,7.34,0,0,1,2.1-.29V30.73H200.27L184.62,73l-19.7-42.23H147.13v1.18c2,.16,5.83.16,8.82,5.27l23.23,49.68h1.18l4.88-12.6-.07-.15,15.11-40V76.78c0,5.9-2.36,8.19-5.67,8.19v1.18h22V85a6.8,6.8,0,0,1-2.16-.35C211.93,83.79,210,81.4,210,76.78Z"/><path class="cls-1" d="M157.13,66.39h-1.18c0,4.41-.71,18.58-11.42,18.58v1.18H167.6V85C157.76,85,157.13,71,157.13,66.39Z"/><path class="cls-1" d="M222,30.81v1.1c6.93.31,12.28,2.13,12.28,14.72C234.31,59.07,229,61,222,61.27v1.18c13.7-.39,23-3.39,23-15.82S235.73,31.12,222,30.81Z"/><polygon class="cls-1" points="182.6 39.66 173.3 19.83 182.6 0 191.89 19.83 182.6 39.66"/></g></g></svg>