<svg xmlns="http://www.w3.org/2000/svg" viewBox="0 0 359.96 143.95"><defs><style>.cls-1{fill:#fff;}</style></defs><title>MP_logo</title><g id="Layer_2" data-name="Layer 2"><g id="Layer_1-2" data-name="Layer 1"><path class="cls-1" d="M44.42,142.78v.73H30.87v-.73c2,0,3.5-1.41,3.5-5V111.42L22.09,143.95h-.73L7.77,114.53v16.8c0,2.82.39,11.46,6.46,11.46v.73H0v-.73c6.6,0,7-8.69,7-11.46v-18a5.87,5.87,0,0,0-5.44-3.3v-.73h11l12.14,26.07,9.66-26.07h9.71v.73c-2.09,0-3.74,1.17-3.74,4.27v23.4C40.34,141.38,42.33,142.78,44.42,142.78Z"/><path class="cls-1" d="M69.81,143.51H61.07V143c2.24,0,1.19-2.79.78-3.74l-1.09-2.72H52.34c-.48,1.36-2.28,6.66,2.79,6.46v.51h-8V143c1.09,0,1.94,0,5.06-7.92L58,119.59h.44c6.25,15,8.53,20.79,8.53,20.79,1.12,2.72,1.9,2.55,2.82,2.62ZM60.56,136l-4.21-10.6L52.44,136Z"/><path class="cls-1" d="M94.27,143.51H91.42c-5.23,0-4.52,0-6.69-7.41A4.77,4.77,0,0,0,80,132.57h-1.6v7.1c0,2.34,1,3.33,2.38,3.33v.51H72V143c1.46,0,2.28-1,2.28-3.53V122.92c0-2.11-.78-2.82-2.28-2.82v-.51h7.44c6.76,0,11,.82,11,6.49,0,4.38-2.65,5.84-6.49,6.18,2.24-.07,4.76.78,6.46,7.58A4.21,4.21,0,0,0,94.27,143ZM79.42,120.1H78.37v12h1.05c3.6,0,6.39,0,6.39-6S82.89,120.1,79.42,120.1Z"/><path class="cls-1" d="M117.65,119.59v.51c-1.19,0-3.74,0-7.51,7.48l-2.41,5v6.93c0,2.55,1.29,3.43,2.72,3.43v.54H101V143c1.43,0,2.72-.88,2.72-3.43v-5.61c-5-8.83-6.52-11.21-6.52-11.21-1.49-2.58-2.62-2.62-3.6-2.65v-.48h9.79v.48c-.85,0-3.09-.07-.78,3.84l4.89,8.15,2.45-5c.58-1.19,3-6.93-1.73-6.93v-.51Z"/><path class="cls-1" d="M138.61,136.14v7.37H120.5V143c1.46,0,2.14-1.39,2.14-3.7V123.06c0-2.07-1-3-2.41-3v-.51h9.41v.51c-1.46,0-2.82.58-2.82,3V143H128c1.83,0,9.21,0,10.09-6.86Z"/><path class="cls-1" d="M152.65,119.59v.51c-1.46,0-2.65.75-2.65,2.85v16.68c0,2.31,1.22,3.36,2.65,3.36v.51h-9.48V143c1.46,0,2.65-1.05,2.65-3.36V123c0-2.11-1.16-2.85-2.65-2.85v-.51Z"/><path class="cls-1" d="M182,119.59v.51c-5,0-4.93,6.46-4.93,8v15.39h-1.46L161,124.86v10.06c0,1.53,0,8.09,4.55,8.09v.51H155.47V143c5,0,5-6.56,5-8.09v-10.6l-1.36-1.73c-2.17-2.72-3.16-2.41-4-2.48v-.51h7.31l14.2,17.91v-9.38c0-1.56,0-8.05-4.55-8v-.51Z"/><path class="cls-1" d="M202.63,136.27v7.24H184.52V143c1.43,0,1.9-1.5,1.9-3.81V123.74c0-2.11-.41-3.64-1.9-3.64v-.51h17.67v6.29h-.51c-.58-5.74-8.12-5.78-9.51-5.78h-1.53v11.08h1.7c.48,0,4.86,0,5.13-3.47H198v7.48h-.51c-.27-3.5-4.69-3.5-5.13-3.5h-1.7V143H192c1.5,0,9,.07,10.09-6.73Z"/><path class="cls-1" d="M229.89,136.86c0,5.68,2.72,5.92,5.29,5.92v.73H220.76v-.73c2.23,0,3.2-1.89,3.2-5.87v-21.8c0-3.16-1-5-3.3-5v-.73H231.2c9.66,0,16.31,1.46,16.31,9.81s-6.65,9.76-16.31,9.76h-1.31Zm1.31-8.69c5.34,0,9.66-.24,9.66-9s-4.42-9.08-9.66-9.08h-1.31v18.11Z"/><path class="cls-1" d="M267.71,143.51H259V143c2.24,0,1.19-2.79.78-3.74l-1.09-2.72h-8.43c-.48,1.36-2.28,6.66,2.79,6.46v.51h-8V143c1.09,0,1.94,0,5.06-7.92l5.81-15.49h.44c6.25,15,8.53,20.79,8.53,20.79,1.12,2.72,1.9,2.55,2.82,2.62ZM258.46,136l-4.21-10.6L250.34,136Z"/><path class="cls-1" d="M288.57,119.59V126h-.51c-.2-5.81-6.66-5.91-6.9-5.91h-1.32v19.71c0,2.28,1.26,3.19,2.68,3.19v.51H273V143c1.43,0,2.68-.92,2.68-3.19V120.1h-1.32c-.51,0-6.66.1-6.86,5.91H267v-6.42Z"/><path class="cls-1" d="M310.86,143.51h-8.73V143c2.24,0,1.19-2.79.78-3.74l-1.09-2.72h-8.43c-.48,1.36-2.28,6.66,2.79,6.46v.51h-8V143c1.09,0,1.94,0,5.06-7.92l5.81-15.49h.44c6.25,15,8.53,20.79,8.53,20.79,1.12,2.72,1.9,2.55,2.82,2.62ZM301.62,136l-4.21-10.6L293.5,136Z"/><path class="cls-1" d="M335.32,143.51h-2.85c-5.23,0-4.52,0-6.69-7.41a4.77,4.77,0,0,0-4.76-3.53h-1.6v7.1c0,2.34,1,3.33,2.38,3.33v.51H313V143c1.46,0,2.28-1,2.28-3.53V122.92c0-2.11-.78-2.82-2.28-2.82v-.51h7.44c6.76,0,11,.82,11,6.49,0,4.38-2.65,5.84-6.49,6.18,2.24-.07,4.76.78,6.46,7.58a4.21,4.21,0,0,0,3.84,3.16ZM320.48,120.1h-1.05v12h1.05c3.6,0,6.39,0,6.39-6S323.94,120.1,320.48,120.1Z"/><path class="cls-1" d="M348.58,143.82c-7.48,0-11.38-5.33-11.38-12.1s3.91-12.44,11.38-12.44S360,125,360,131.72,356.05,143.82,348.58,143.82Zm0-24c-4,0-6.52,2.62-6.52,11.93s2.48,11.59,6.52,11.59,6.46-2.24,6.46-11.59S352.59,119.79,348.58,119.79Z"/><path class="cls-1" d="M194,71V35.89c0-3.64,1.51-5.49,3.66-6.13a6.78,6.78,0,0,1,1.94-.27V28.39H185.06l-14.46,39-18.21-39H136v1.09a8.9,8.9,0,0,1,8.15,4.87l21.46,45.91h1.09l4.51-11.64-.06-.14,14-37V71c0,5.46-2.18,7.57-5.24,7.57v1.09h20.3V78.52a6.29,6.29,0,0,1-2-.32C195.83,77.43,194,75.22,194,71Z"/><path class="cls-1" d="M145.19,61.35H144.1c0,4.07-.66,17.17-10.55,17.17v1.09h21.32V78.52C145.77,78.52,145.19,65.57,145.19,61.35Z"/><path class="cls-1" d="M205.16,28.47v1c6.4.29,11.35,2,11.35,13.6s-4.87,13.24-11.35,13.53v1.09c12.66-.36,21.24-3.13,21.24-14.62S217.82,28.76,205.16,28.47Z"/><polygon class="cls-1" points="168.73 36.65 160.13 18.33 168.73 0 177.32 18.33 168.73 36.65"/></g></g></svg>