<svg xmlns="http://www.w3.org/2000/svg" viewBox="0 0 92.76 80.18"><defs><style>.cls-1{fill:#bdbdbd;}</style></defs><title>logo_letters_sm</title><g id="Layer_2" data-name="Layer 2"><g id="Layer_1-2" data-name="Layer 1"><path class="cls-1" d="M60.39,70.88v-35c0-3.63,1.51-5.49,3.66-6.13A6.78,6.78,0,0,1,66,29.45V28.36H51.45L37,67.34l-18.19-39H2.4v1.09a8.89,8.89,0,0,1,8.14,4.87L32,80.18h1.09l4.51-11.63-.06-.14L51.45,31.49V70.88c0,5.45-2.18,7.56-5.23,7.56v1.09H66.5V78.44a6.28,6.28,0,0,1-2-.32C62.21,77.35,60.39,75.14,60.39,70.88Z"/><path class="cls-1" d="M11.63,61.29H10.54c0,4.07-.65,17.15-10.54,17.15v1.09H21.29V78.44C12.21,78.44,11.63,65.5,11.63,61.29Z"/><path class="cls-1" d="M71.54,28.44v1c6.4.29,11.34,2,11.34,13.59S78,56.27,71.54,56.56v1.09C84.18,57.29,92.76,54.53,92.76,43S84.18,28.73,71.54,28.44Z"/><polygon class="cls-1" points="35.14 36.61 26.55 18.31 35.14 0 43.72 18.31 35.14 36.61"/></g></g></svg>