<svg xmlns="http://www.w3.org/2000/svg" viewBox="0 0 100.49 86.86"><defs><style>.cls-1{fill:#f6f5f7;}</style></defs><title>mp_logo_bright_1</title><g id="Layer_2" data-name="Layer 2"><g id="Layer_1-2" data-name="Layer 1"><path class="cls-1" d="M65.43,76.78V38.84c0-3.94,1.64-5.94,4-6.64a7.34,7.34,0,0,1,2.1-.29V30.73H55.74L40.09,73,20.39,30.73H2.6v1.18c2,.16,5.83.16,8.82,5.27L34.64,86.86h1.18l4.88-12.6-.07-.15,15.11-40V76.78c0,5.9-2.36,8.19-5.67,8.19v1.18H72V85a6.8,6.8,0,0,1-2.16-.35C67.4,83.79,65.43,81.4,65.43,76.78Z"/><path class="cls-1" d="M12.6,66.39H11.42C11.42,70.8,10.71,85,0,85v1.18H23.07V85C13.23,85,12.6,71,12.6,66.39Z"/><path class="cls-1" d="M77.5,30.81v1.1c6.93.31,12.28,2.13,12.28,14.72C89.78,59.07,84.5,61,77.5,61.27v1.18c13.7-.39,23-3.39,23-15.82S91.2,31.12,77.5,30.81Z"/><polygon class="cls-1" points="38.07 39.66 28.77 19.83 38.07 0 47.36 19.83 38.07 39.66"/></g></g></svg>