<svg xmlns="http://www.w3.org/2000/svg" viewBox="0 0 362.66 178.01"><defs><style>.cls-1,.cls-2{fill:#fff;}.cls-2{font-size:26px;font-family:BigCaslon-Medium, Big Caslon;letter-spacing:0.1em;}</style></defs><title>MP_logo_brand</title><g id="Layer_2" data-name="Layer 2"><g id="Layer_1-2" data-name="Layer 1"><path class="cls-1" d="M44.37,127.63v.73H30.84v-.73c2,0,3.49-1.41,3.49-5V96.31L22.06,128.8h-.73L7.76,99.41v16.78c0,2.81.39,11.44,6.45,11.44v.73H0v-.73c6.6,0,7-8.68,7-11.44V98.25a5.87,5.87,0,0,0-5.43-3.3v-.73h11l12.12,26,9.65-26H44v.73c-2.09,0-3.73,1.16-3.73,4.27v23.37C40.3,126.23,42.29,127.63,44.37,127.63Z"/><path class="cls-1" d="M69.73,128.36H61v-.51c2.24,0,1.19-2.78.78-3.73L60.7,121.4H52.29c-.47,1.36-2.27,6.65,2.78,6.45v.51h-8v-.51c1.09,0,1.93,0,5.06-7.91L58,104.47h.44c6.25,15,8.52,20.77,8.52,20.77,1.12,2.72,1.9,2.55,2.82,2.61Zm-9.23-7.47L56.29,110.3l-3.9,10.59Z"/><path class="cls-1" d="M94.17,128.36H91.32c-5.23,0-4.51,0-6.69-7.4a4.76,4.76,0,0,0-4.75-3.53h-1.6v7.09c0,2.34,1,3.33,2.38,3.33v.51H71.91v-.51c1.46,0,2.27-1,2.27-3.53V107.79c0-2.1-.78-2.82-2.27-2.82v-.51h7.43c6.75,0,11,.81,11,6.48,0,4.38-2.65,5.84-6.48,6.18,2.24-.07,4.75.78,6.45,7.57a4.21,4.21,0,0,0,3.84,3.16ZM79.34,105H78.29v11.95h1.05c3.6,0,6.38,0,6.38-6S82.8,105,79.34,105Z"/><path class="cls-1" d="M117.53,104.47V105c-1.19,0-3.73,0-7.5,7.47l-2.41,5v6.92c0,2.55,1.29,3.43,2.72,3.43v.54h-9.47v-.54c1.43,0,2.71-.88,2.71-3.43v-5.6c-5-8.82-6.52-11.2-6.52-11.2-1.49-2.58-2.61-2.61-3.6-2.65v-.48h9.78v.48c-.85,0-3.09-.07-.78,3.84l4.89,8.15,2.44-5c.58-1.19,3-6.92-1.73-6.92v-.51Z"/><path class="cls-1" d="M138.47,121v7.37H120.38v-.51c1.46,0,2.14-1.39,2.14-3.7V107.93c0-2.07-1-3-2.41-3v-.51h9.4V105c-1.46,0-2.82.58-2.82,3v19.86h1.22c1.83,0,9.2,0,10.08-6.86Z"/><path class="cls-1" d="M152.49,104.47V105c-1.46,0-2.65.75-2.65,2.85v16.67c0,2.31,1.22,3.36,2.65,3.36v.51H143v-.51c1.46,0,2.65-1.05,2.65-3.36V107.83c0-2.1-1.15-2.85-2.65-2.85v-.51Z"/><path class="cls-1" d="M181.81,104.47V105c-5,0-4.92,6.45-4.92,8v15.38h-1.46L160.8,109.73v10c0,1.53,0,8.08,4.55,8.08v.51h-10v-.51c5,0,5-6.55,5-8.08V109.18l-1.36-1.73c-2.17-2.72-3.16-2.41-4-2.48v-.51h7.3l14.19,17.89V113c0-1.56,0-8-4.55-8v-.51Z"/><path class="cls-1" d="M202.42,121.13v7.23H184.32v-.51c1.43,0,1.9-1.49,1.9-3.8V108.61c0-2.1-.41-3.63-1.9-3.63v-.51H202v6.28h-.51c-.58-5.74-8.11-5.77-9.5-5.77h-1.53V116h1.7c.47,0,4.85,0,5.13-3.46h.51V120h-.51c-.27-3.5-4.68-3.5-5.13-3.5h-1.7v11.3h1.39c1.49,0,9,.07,10.08-6.72Z"/><path class="cls-1" d="M229.65,121.72c0,5.67,2.72,5.92,5.29,5.92v.73h-14.4v-.73c2.23,0,3.2-1.89,3.2-5.87V100c0-3.15-1-5-3.3-5v-.73H231c9.65,0,16.29,1.45,16.29,9.8s-6.64,9.75-16.29,9.75h-1.31ZM231,113c5.33,0,9.65-.24,9.65-9s-4.41-9.07-9.65-9.07h-1.31V113Z"/><path class="cls-1" d="M267.43,128.36H258.7v-.51c2.24,0,1.19-2.78.78-3.73l-1.09-2.72H250c-.48,1.36-2.27,6.65,2.78,6.45v.51h-8v-.51c1.09,0,1.93,0,5.06-7.91l5.8-15.48h.44c6.25,15,8.52,20.77,8.52,20.77,1.12,2.72,1.9,2.55,2.82,2.61Zm-9.23-7.47L254,110.3l-3.9,10.59Z"/><path class="cls-1" d="M288.27,104.47v6.42h-.51c-.2-5.8-6.65-5.91-6.89-5.91h-1.32v19.69c0,2.27,1.26,3.19,2.68,3.19v.51h-9.5v-.51c1.43,0,2.68-.92,2.68-3.19V105h-1.32c-.51,0-6.65.1-6.86,5.91h-.51v-6.42Z"/><path class="cls-1" d="M310.53,128.36h-8.72v-.51c2.24,0,1.19-2.78.78-3.73l-1.09-2.72h-8.42c-.47,1.36-2.27,6.65,2.78,6.45v.51h-8v-.51c1.09,0,1.93,0,5.06-7.91l5.8-15.48h.44c6.25,15,8.52,20.77,8.52,20.77,1.12,2.72,1.9,2.55,2.82,2.61Zm-9.23-7.47-4.21-10.59-3.9,10.59Z"/><path class="cls-1" d="M335,128.36h-2.85c-5.23,0-4.51,0-6.69-7.4a4.76,4.76,0,0,0-4.75-3.53h-1.6v7.09c0,2.34,1,3.33,2.38,3.33v.51h-8.76v-.51c1.46,0,2.27-1,2.27-3.53V107.79c0-2.1-.78-2.82-2.27-2.82v-.51h7.43c6.75,0,11,.81,11,6.48,0,4.38-2.65,5.84-6.48,6.18,2.24-.07,4.75.78,6.45,7.57a4.21,4.21,0,0,0,3.84,3.16ZM320.14,105h-1.05v11.95h1.05c3.6,0,6.38,0,6.38-6S323.6,105,320.14,105Z"/><path class="cls-1" d="M348.21,128.67c-7.47,0-11.37-5.33-11.37-12.08s3.9-12.42,11.37-12.42,11.37,5.7,11.37,12.42S355.68,128.67,348.21,128.67Zm0-24c-4,0-6.52,2.61-6.52,11.91s2.48,11.57,6.52,11.57,6.45-2.24,6.45-11.57S352.22,104.67,348.21,104.67Z"/><path class="cls-1" d="M193.81,70.88v-35c0-3.63,1.51-5.49,3.66-6.13a6.78,6.78,0,0,1,1.93-.27V28.36H184.87l-14.44,39-18.19-39H135.81v1.09A8.89,8.89,0,0,1,144,34.32l21.44,45.86h1.09L171,68.55l-.06-.14,13.94-36.93V70.88c0,5.45-2.18,7.56-5.23,7.56v1.09h20.28V78.44a6.28,6.28,0,0,1-2-.32C195.63,77.35,193.81,75.14,193.81,70.88Z"/><path class="cls-1" d="M145,61.29H144c0,4.07-.65,17.15-10.54,17.15v1.09h21.29V78.44C145.62,78.44,145,65.5,145,61.29Z"/><path class="cls-1" d="M204.95,28.44v1c6.4.29,11.34,2,11.34,13.59s-4.87,13.23-11.34,13.52v1.09c12.65-.36,21.22-3.12,21.22-14.61S217.59,28.73,204.95,28.44Z"/><polygon class="cls-1" points="168.55 36.61 159.97 18.31 168.55 0 177.13 18.31 168.55 36.61"/><text class="cls-2" transform="translate(221.66 167.74) scale(1 1.01)">The Brand</text></g></g></svg>